<svg width="69" height="16" viewBox="0 0 69 16" fill="none" xmlns="http://www.w3.org/2000/svg">
<path d="M2.39258 3.11523C3.22266 3.11523 3.87695 2.45117 3.87695 1.65039C3.87695 0.839844 3.22266 0.185547 2.39258 0.185547C1.5625 0.185547 0.908203 0.839844 0.908203 1.65039C0.908203 2.45117 1.5625 3.11523 2.39258 3.11523ZM0.976562 15H3.82812V4.53125H0.976562V15Z" fill="black"/>
<path d="M18.5742 9.08203V7.49023H12.6367V9.63867H15.7031L15.6934 9.86328C15.6348 11.6113 14.2969 12.793 12.373 12.793C10.0293 12.793 8.54492 10.9277 8.54492 7.87109C8.54492 4.87305 9.94141 3.10547 12.2656 3.10547C13.8574 3.10547 15.0586 3.98438 15.4883 5.45898H18.4473C18.0273 2.60742 15.5469 0.664062 12.2559 0.664062C8.11523 0.664062 5.53711 3.39844 5.53711 7.91016C5.53711 12.4902 8.11523 15.2344 12.3242 15.2344C16.25 15.2344 18.5742 12.9199 18.5742 9.08203Z" fill="black"/>
<path d="M20.3516 15H23.2031V0.908203H20.3516V15Z" fill="black"/>
<path d="M28.2324 15.166C29.541 15.166 30.8398 14.5117 31.4258 13.3984H31.4844V15H34.2383V7.80273C34.2383 5.69336 32.4902 4.30664 29.8047 4.30664C27.0312 4.30664 25.3027 5.70312 25.1953 7.73438H27.8027C27.9395 6.96289 28.6133 6.43555 29.6777 6.43555C30.752 6.43555 31.4355 7.00195 31.4355 7.97852V8.67188L28.7988 8.82812C26.1914 8.98438 24.7266 10.0879 24.7266 11.9922C24.7266 13.877 26.2402 15.166 28.2324 15.166ZM29.1699 13.1055C28.2031 13.1055 27.5586 12.6172 27.5586 11.8359C27.5586 11.0938 28.1641 10.6152 29.2285 10.5371L31.4355 10.4004V11.1621C31.4355 12.2949 30.4102 13.1055 29.1699 13.1055Z" fill="black"/>
<path d="M36.084 15H38.9355V8.99414C38.9355 7.63672 39.7461 6.69922 41.0254 6.69922C42.3047 6.69922 42.9492 7.48047 42.9492 8.84766V15H45.8008V8.25195C45.8008 5.80078 44.4922 4.33594 42.168 4.33594C40.5566 4.33594 39.4531 5.09766 38.8965 6.39648H38.8379V4.53125H36.084V15Z" fill="black"/>
<path d="M57.1191 8.42773C56.9922 6.05469 55.1953 4.30664 52.3633 4.30664C49.2285 4.30664 47.2266 6.39648 47.2266 9.75586C47.2266 13.1738 49.2285 15.2246 52.3828 15.2246C55.1367 15.2246 56.9824 13.6328 57.1289 11.1621H54.4727C54.2969 12.3047 53.5547 12.9883 52.4121 12.9883C50.9961 12.9883 50.1172 11.8164 50.1172 9.75586C50.1172 7.73438 50.9961 6.54297 52.4023 6.54297C53.5742 6.54297 54.3066 7.32422 54.4727 8.42773H57.1191Z" fill="black"/>
<path d="M65.4395 11.7969C65.1758 12.5977 64.375 13.1152 63.3301 13.1152C61.875 13.1152 60.9277 12.0898 60.9277 10.5957V10.4199H68.1445V9.55078C68.1445 6.36719 66.2207 4.30664 63.1738 4.30664C60.0781 4.30664 58.125 6.47461 58.125 9.81445C58.125 13.1641 60.0586 15.2246 63.2812 15.2246C65.8691 15.2246 67.7441 13.8477 68.0566 11.7969H65.4395ZM63.2031 6.41602C64.4727 6.41602 65.3418 7.33398 65.4004 8.67188H60.957C61.0547 7.36328 61.9531 6.41602 63.2031 6.41602Z" fill="black"/>
</svg>
